<?xml version="1.0" encoding="UTF-8" standalone="no"?>
<!-- Created with Inkscape (http://www.inkscape.org/) -->

<svg
   xmlns:dc="http://purl.org/dc/elements/1.1/"
   xmlns:cc="http://creativecommons.org/ns#"
   xmlns:rdf="http://www.w3.org/1999/02/22-rdf-syntax-ns#"
   xmlns:svg="http://www.w3.org/2000/svg"
   xmlns="http://www.w3.org/2000/svg"
   xmlns:sodipodi="http://sodipodi.sourceforge.net/DTD/sodipodi-0.dtd"
   xmlns:inkscape="http://www.inkscape.org/namespaces/inkscape"
   width="210mm"
   height="297mm"
   viewBox="0 0 744.09448819 1052.3622047"
   id="svg2"
   version="1.1"
   inkscape:version="0.91 r13725"
   sodipodi:docname="_form-of-figure-making.svg">
  <defs
     id="defs4" />
  <sodipodi:namedview
     id="base"
     pagecolor="#ffffff"
     bordercolor="#666666"
     borderopacity="1.0"
     inkscape:pageopacity="0.0"
     inkscape:pageshadow="2"
     inkscape:zoom="1.4"
     inkscape:cx="331.75311"
     inkscape:cy="891.09116"
     inkscape:document-units="px"
     inkscape:current-layer="layer1"
     showgrid="false"
     inkscape:window-width="1366"
     inkscape:window-height="714"
     inkscape:window-x="0"
     inkscape:window-y="25"
     inkscape:window-maximized="1" />
  <metadata
     id="metadata7">
    <rdf:RDF>
      <cc:Work
         rdf:about="">
        <dc:format>image/svg+xml</dc:format>
        <dc:type
           rdf:resource="http://purl.org/dc/dcmitype/StillImage" />
        <dc:title></dc:title>
      </cc:Work>
    </rdf:RDF>
  </metadata>
  <g
     inkscape:label="Layer 1"
     inkscape:groupmode="layer"
     id="layer1">
    <path
       style="fill:none;fill-rule:evenodd;stroke:#000000;stroke-width:1px;stroke-linecap:butt;stroke-linejoin:miter;stroke-opacity:1"
       d="m 48.571429,25.219347 c -2.756263,2.014248 -6.351088,1.389829 -9.285714,2.857143 -1.241753,0.620876 -2.254351,1.703831 -3.571429,2.142857 -1.597191,0.532397 -3.38119,0.251768 -5,0.714286 -1.743511,0.498146 -3.279772,1.569447 -5,2.142857 C 23.851657,33.697366 21.89709,33.99917 20,34.505061 c -1.674832,0.446622 -3.343291,0.918815 -5,1.428572 -1.439256,0.442848 -2.87053,0.913958 -4.285714,1.428571 -1.2049866,0.438177 -2.3433212,1.060139 -3.5714289,1.428571 -1.1628511,0.348856 -2.4196774,0.330369 -3.5714286,0.714286 -0.9523809,0.476191 -1.9047619,0.952381 -2.85714277,1.428572 0,0.238095 0.1683587,0.545926 0,0.714285 -0.168359,0.168359 -0.545927,-0.168359 -0.7142860044078,0 -0.1683579955922,0.168359 -0.1683579955922,0.545927 0,0.714286 C 0.33671773,42.698921 1.0026537,42.149245 1.4285714,42.362204 c 0.3011693,0.150585 0.4131164,0.563701 0.7142857,0.714286 0.4259177,0.212959 1.0026537,-0.212959 1.4285714,0 0.3011694,0.150584 0.4131165,0.563701 0.7142858,0.714285 0.673435,0.336718 1.4285714,0.476191 2.1428571,0.714286 0.7142857,0.238095 1.4285714,0.476191 2.1428572,0.714286 1.4285714,0.47619 2.8875704,0.869314 4.2857144,1.428571 0.494318,0.197728 0.923495,0.545927 1.428571,0.714286 0.931315,0.310438 1.979091,0.27526 2.857143,0.714286 0.602339,0.301169 0.889824,1.02451 1.428572,1.428571 0.851835,0.638877 2.005307,0.789695 2.857143,1.428572 3.089493,3.089493 -0.189222,0.111947 2.857143,2.142857 1.640976,1.093984 -0.306287,0.407998 1.428571,2.142857 0.376462,0.376461 1.05211,0.337824 1.428571,0.714286 0.168359,0.168358 -0.07529,0.488408 0,0.714285 0.168359,0.505077 0.337825,1.05211 0.714286,1.428572 0.168359,0.168358 0.501327,-0.10648 0.714286,0 0.602338,0.301169 0.868239,1.055017 1.428571,1.428571 1.960822,1.307215 0.896321,0.121357 2.857143,1.428572 0.280166,0.186777 0.413117,0.563701 0.714286,0.714285 0.212959,0.10648 0.714286,-0.238095 0.714286,0 0,0.238095 -0.545927,0.168359 -0.714286,0 -0.168359,-0.168359 0.168359,-0.545927 0,-0.714285 -0.952381,-0.952381 -0.714286,1.190476 -0.714286,-0.714286"
       id="path3357"
       inkscape:connector-curvature="0" />
    <path
       style="fill:none;fill-rule:evenodd;stroke:#000000;stroke-width:1px;stroke-linecap:butt;stroke-linejoin:miter;stroke-opacity:1"
       d="m -0.71428572,40.933632 c 5.23809522,0 10.47619052,0 15.71428572,0 1.666667,0 3.337025,-0.110865 5,0 1.915334,0.127689 3.798013,0.601564 5.714286,0.714286 0.08934,0.0053 12.809689,-0.0053 12.857143,0 2.181703,0.242411 4.246867,1.18616 6.428571,1.428571 2.129751,0.236639 4.289014,-0.118864 6.428571,0 2.152725,0.119596 4.275218,0.606618 6.428572,0.714286 2.61578,0.130789 5.248851,-0.237117 7.857143,0 2.651053,0.241005 5.205164,1.197965 7.857143,1.428572 2.846401,0.247513 5.714285,0 8.571428,0 2.857143,0 5.714286,0 8.571429,0 12.619044,0 25.238094,0 37.857144,0 3.57143,0 7.14286,0 10.71428,0 3.57143,0 7.14982,-0.22278 10.71429,0 4.0676,0.254224 8.07436,1.189247 12.14286,1.428571 4.04063,0.237684 8.09524,0 12.14285,0 4.04762,0 8.09524,0 12.14286,0 4.04762,0 8.10222,-0.237684 12.14286,0 4.0685,0.239324 8.07435,1.189248 12.14286,1.428571 4.04063,0.237685 8.09523,0 12.14285,0 4.04762,0 8.09524,0 12.14286,0 10.71429,0 21.42857,0 32.14286,0 15.71428,0 31.42857,0 47.14285,0 4.52381,0 9.04762,0 13.57143,0 4.52381,0 9.05387,0.237767 13.57143,0 4.54252,-0.239079 9.02891,-1.189491 13.57143,-1.428571 9.51065,-0.50056 19.0584,0.453001 28.57143,0 5.01694,-0.238902 9.98306,-1.18967 15,-1.428571 4.99434,-0.237826 10,0 15,0 4.52381,0 9.04762,0 13.57143,0 21.90476,0 43.80952,0 65.71428,0 7.14286,0 14.28572,0 21.42857,0 3.09524,0 6.1996,0.237393 9.28572,0 3.12243,-0.240187 6.16328,-1.188385 9.28571,-1.428572 3.08612,-0.237394 6.19048,0 9.28572,0 3.09524,0 6.19047,0 9.28571,0 8.33334,0 16.66667,0 25,0 2.61905,0 5.24885,0.237118 7.85714,0 2.65106,-0.241005 5.20609,-1.187566 7.85715,-1.428571 2.60829,-0.237118 5.23809,0 7.85714,0 2.14286,0 4.28571,0 6.42857,0 2.14286,0 4.29882,0.236639 6.42857,0 2.18171,-0.242412 4.24848,-1.17209 6.42857,-1.428572 1.89172,-0.222555 3.80953,0 5.71429,0 2.14286,0 4.28571,0 6.42857,0 2.14286,0 4.30451,0.283208 6.42857,0 1.49264,-0.199018 2.80036,-1.181012 4.28572,-1.428571 1.40913,-0.234856 2.85714,0 4.28571,0 1.19048,0 2.38095,0 3.57143,0 1.42857,0 2.86208,0.118636 4.28571,0 1.44328,-0.120273 2.84245,-0.594013 4.28572,-0.714286 1.42364,-0.118636 2.85714,0 4.28571,0 1.42857,0 2.85715,0 4.28572,0 1.42857,0 2.87658,0.234856 4.28571,0 1.48536,-0.24756 2.80416,-1.159197 4.28572,-1.428571 1.17127,-0.212959 2.38095,0 3.57143,0 1.42857,0 2.85714,0 4.28571,0 5.23809,0 10.47619,0 15.71429,0 2.38095,0 4.7619,0 7.14285,0 0.51065,0 3.92008,-0.121878 4.28572,0 0.31943,0.106479 0.39484,0.607806 0.71428,0.714285 0.90351,0.30117 1.95364,-0.301169 2.85715,0 0.31943,0.10648 0.39484,0.607807 0.71428,0.714286 0.51689,0.172297 2.62169,-0.235456 2.85714,0 0.16836,0.168359 -0.16836,0.545927 0,0.714286 0.33672,0.336717 1.00266,-0.212959 1.42858,0 0.30116,0.150584 0.39484,0.607806 0.71428,0.714286 0.45175,0.150584 0.9666,-0.115494 1.42857,0 0.5165,0.129125 0.90652,0.609874 1.42857,0.714285 1.16736,0.233472 2.4165,-0.288733 3.57143,0 0.5165,0.129126 0.91207,0.585161 1.42857,0.714286 0.12933,0.03233 3.52696,-0.04447 3.57143,0 0.16836,0.168359 -0.21296,0.607806 0,0.714286 0.56885,0.284423 4.22634,-0.257887 5,0 2.64794,0.882644 -0.87068,0.714285 1.42857,0.714285"
       id="path3359"
       inkscape:connector-curvature="0" />
    <path
       style="fill:none;fill-rule:evenodd;stroke:#000000;stroke-width:1px;stroke-linecap:butt;stroke-linejoin:miter;stroke-opacity:1"
       d="m 731.42857,28.790775 c -0.66386,2.402874 2.35865,3.720298 2.85715,5.714286 0.38095,1.523809 -0.6061,1.262605 0.71428,2.142857 0.44298,0.295321 0.95238,0.47619 1.42857,0.714286 0.47619,0.47619 0.88983,1.02451 1.42857,1.428571 0.42592,0.319438 0.98559,0.418965 1.42858,0.714286 0.28016,0.186777 0.47619,0.47619 0.71428,0.714286 0.2381,0.238095 0.5637,0.413116 0.71429,0.714285 0.10648,0.212959 -0.10648,0.501327 0,0.714286 0.15058,0.301169 0.47619,0.47619 0.71428,0.714286 0.2381,0.238095 0.41312,0.563701 0.71429,0.714285 0.21296,0.10648 0.50132,-0.106479 0.71428,0 0.30117,0.150585 0.41312,0.563701 0.71429,0.714286 0.42592,0.212959 1.09185,-0.336717 1.42857,0 0.16836,0.168359 0.16836,0.545927 0,0.714286 -0.33672,0.336717 -1.00265,-0.212959 -1.42857,0 -0.60234,0.301169 -0.7897,1.215612 -1.42857,1.428571 -0.45176,0.150585 -0.97682,-0.150584 -1.42857,0 -0.31944,0.10648 -0.43412,0.527509 -0.71429,0.714286 -0.44298,0.295321 -0.95238,0.47619 -1.42857,0.714286 -0.95238,0.47619 -1.97118,0.83793 -2.85714,1.428571 -0.28017,0.186777 -0.43412,0.527509 -0.71429,0.714286 -0.88596,0.590641 -2.00531,0.789695 -2.85714,1.428571 -0.53875,0.404061 -0.95238,0.952381 -1.42857,1.428572 -2.36899,2.368987 0.67343,-0.336718 -1.42857,0.714285 -0.60234,0.30117 -0.82624,1.127403 -1.42858,1.428572 -0.95238,0.47619 -0.71428,-0.714286 -0.71428,0.714286"
       id="path3361"
       inkscape:connector-curvature="0" />
    <text
       xml:space="preserve"
       style="font-style:normal;font-weight:normal;font-size:40px;line-height:125%;font-family:sans-serif;letter-spacing:0px;word-spacing:0px;fill:#000000;fill-opacity:1;stroke:none;stroke-width:1px;stroke-linecap:butt;stroke-linejoin:miter;stroke-opacity:1"
       x="72.14286"
       y="90.219345"
       id="text3363"
       sodipodi:linespacing="125%"><tspan
         sodipodi:role="line"
         id="tspan3365"
         x="72.14286"
         y="90.219345"
         style="font-size:15px">consider this the figure</tspan><tspan
         sodipodi:role="line"
         x="72.14286"
         y="108.96935"
         id="tspan3367"
         style="font-size:15px">reasonable width</tspan><tspan
         sodipodi:role="line"
         x="72.14286"
         y="127.71935"
         style="font-size:15px"
         id="tspan3369" /><tspan
         sodipodi:role="line"
         x="72.14286"
         y="146.46935"
         style="font-size:15px"
         id="tspan3373">12pt is fairly big</tspan><tspan
         sodipodi:role="line"
         x="72.14286"
         y="165.21935"
         style="font-size:15px"
         id="tspan3377" /><tspan
         sodipodi:role="line"
         x="72.14286"
         y="181.47748"
         style="font-size:12.5px"
         id="tspan3379">10pt maybe more reasonable for small desc</tspan><tspan
         sodipodi:role="line"
         x="72.14286"
         y="197.10248"
         style="font-size:12.5px"
         id="tspan3381" /><tspan
         sodipodi:role="line"
         x="72.14286"
         y="217.71121"
         style="font-size:17.5px"
         id="tspan3383">14pt is big caption?</tspan></text>
  </g>
</svg>
