<?xml version="1.0" encoding="UTF-8" standalone="no"?>
<!-- Created with Inkscape (http://www.inkscape.org/) -->

<svg
   xmlns:dc="http://purl.org/dc/elements/1.1/"
   xmlns:cc="http://creativecommons.org/ns#"
   xmlns:rdf="http://www.w3.org/1999/02/22-rdf-syntax-ns#"
   xmlns:svg="http://www.w3.org/2000/svg"
   xmlns="http://www.w3.org/2000/svg"
   xmlns:sodipodi="http://sodipodi.sourceforge.net/DTD/sodipodi-0.dtd"
   xmlns:inkscape="http://www.inkscape.org/namespaces/inkscape"
   width="210mm"
   height="297mm"
   viewBox="0 0 744.09448819 1052.3622047"
   id="svg14479"
   version="1.1"
   inkscape:version="0.91 r13725"
   sodipodi:docname="possiblelogo.svg">
  <defs
     id="defs14481" />
  <sodipodi:namedview
     id="base"
     pagecolor="#ffffff"
     bordercolor="#666666"
     borderopacity="1.0"
     inkscape:pageopacity="0.0"
     inkscape:pageshadow="2"
     inkscape:zoom="0.7"
     inkscape:cx="272.40744"
     inkscape:cy="664.39744"
     inkscape:document-units="px"
     inkscape:current-layer="layer1"
     showgrid="false"
     inkscape:window-width="1366"
     inkscape:window-height="714"
     inkscape:window-x="0"
     inkscape:window-y="25"
     inkscape:window-maximized="1" />
  <metadata
     id="metadata14484">
    <rdf:RDF>
      <cc:Work
         rdf:about="">
        <dc:format>image/svg+xml</dc:format>
        <dc:type
           rdf:resource="http://purl.org/dc/dcmitype/StillImage" />
        <dc:title></dc:title>
      </cc:Work>
    </rdf:RDF>
  </metadata>
  <g
     inkscape:label="Layer 1"
     inkscape:groupmode="layer"
     id="layer1">
    <path
       inkscape:connector-curvature="0"
       style="color:#000000;clip-rule:nonzero;display:inline;overflow:visible;visibility:visible;opacity:1;isolation:auto;mix-blend-mode:normal;color-interpolation:sRGB;color-interpolation-filters:linearRGB;solid-color:#000000;solid-opacity:1;fill:#ffffff;fill-opacity:1;fill-rule:nonzero;stroke:#000000;stroke-width:8.38895512;stroke-linecap:butt;stroke-linejoin:miter;stroke-miterlimit:4;stroke-dasharray:none;stroke-dashoffset:0;stroke-opacity:1;color-rendering:auto;image-rendering:auto;shape-rendering:auto;text-rendering:auto;enable-background:accumulate"
       d="m 31.198241,26.417415 683.100649,0 0,683.100655 -683.100649,0 z"
       id="rect13997-6-54-49" />
    <path
       inkscape:connector-curvature="0"
       style="color:#000000;clip-rule:nonzero;display:inline;overflow:visible;visibility:visible;opacity:1;isolation:auto;mix-blend-mode:normal;color-interpolation:sRGB;color-interpolation-filters:linearRGB;solid-color:#000000;solid-opacity:1;fill:#ffffff;fill-opacity:1;fill-rule:nonzero;stroke:#000000;stroke-width:8.38895512;stroke-linecap:butt;stroke-linejoin:miter;stroke-miterlimit:4;stroke-dasharray:none;stroke-dashoffset:0;stroke-opacity:1;color-rendering:auto;image-rendering:auto;shape-rendering:auto;text-rendering:auto;enable-background:accumulate"
       d="M 714.29889,139.12898 A 112.71162,112.71162 0 0 1 601.58732,251.84065 112.71162,112.71162 0 0 1 488.87566,139.12898 112.71162,112.71162 0 0 1 601.58732,26.417415 112.71162,112.71162 0 0 1 714.29889,139.12898 Z"
       id="path14098-5-0-0" />
    <path
       inkscape:connector-curvature="0"
       style="color:#000000;clip-rule:nonzero;display:inline;overflow:visible;visibility:visible;opacity:1;isolation:auto;mix-blend-mode:normal;color-interpolation:sRGB;color-interpolation-filters:linearRGB;solid-color:#000000;solid-opacity:1;fill:#ffffff;fill-opacity:1;fill-rule:nonzero;stroke:#000000;stroke-width:8.38895512;stroke-linecap:butt;stroke-linejoin:miter;stroke-miterlimit:4;stroke-dasharray:none;stroke-dashoffset:0;stroke-opacity:1;color-rendering:auto;image-rendering:auto;shape-rendering:auto;text-rendering:auto;enable-background:accumulate"
       d="M 485.52168,139.12898 A 112.71162,112.71162 0 0 1 372.8101,251.84065 112.71162,112.71162 0 0 1 260.09844,139.12898 112.71162,112.71162 0 0 1 372.8101,26.417415 112.71162,112.71162 0 0 1 485.52168,139.12898 Z"
       id="path14098-5-2-7-4" />
    <path
       inkscape:connector-curvature="0"
       style="color:#000000;clip-rule:nonzero;display:inline;overflow:visible;visibility:visible;opacity:1;isolation:auto;mix-blend-mode:normal;color-interpolation:sRGB;color-interpolation-filters:linearRGB;solid-color:#000000;solid-opacity:1;fill:#ffffff;fill-opacity:1;fill-rule:nonzero;stroke:#000000;stroke-width:8.38895512;stroke-linecap:butt;stroke-linejoin:miter;stroke-miterlimit:4;stroke-dasharray:none;stroke-dashoffset:0;stroke-opacity:1;color-rendering:auto;image-rendering:auto;shape-rendering:auto;text-rendering:auto;enable-background:accumulate"
       d="M 256.62131,596.80649 A 112.71162,112.71162 0 0 1 143.90974,709.51807 112.71162,112.71162 0 0 1 31.198082,596.80649 112.71162,112.71162 0 0 1 143.90974,484.09492 112.71162,112.71162 0 0 1 256.62131,596.80649 Z"
       id="path14098-3-6-8" />
    <path
       inkscape:connector-curvature="0"
       style="color:#000000;clip-rule:nonzero;display:inline;overflow:visible;visibility:visible;opacity:1;isolation:auto;mix-blend-mode:normal;color-interpolation:sRGB;color-interpolation-filters:linearRGB;solid-color:#000000;solid-opacity:1;fill:#ffffff;fill-opacity:1;fill-rule:nonzero;stroke:#000000;stroke-width:8.38895512;stroke-linecap:butt;stroke-linejoin:miter;stroke-miterlimit:4;stroke-dasharray:none;stroke-dashoffset:0;stroke-opacity:1;color-rendering:auto;image-rendering:auto;shape-rendering:auto;text-rendering:auto;enable-background:accumulate"
       d="M 714.29889,596.80649 A 112.71162,112.71162 0 0 1 601.58732,709.51807 112.71162,112.71162 0 0 1 488.87566,596.80649 112.71162,112.71162 0 0 1 601.58732,484.09492 112.71162,112.71162 0 0 1 714.29889,596.80649 Z"
       id="path14098-5-0-8-7" />
    <path
       inkscape:connector-curvature="0"
       style="color:#000000;clip-rule:nonzero;display:inline;overflow:visible;visibility:visible;opacity:1;isolation:auto;mix-blend-mode:normal;color-interpolation:sRGB;color-interpolation-filters:linearRGB;solid-color:#000000;solid-opacity:1;fill:#ffffff;fill-opacity:1;fill-rule:nonzero;stroke:#000000;stroke-width:8.38895512;stroke-linecap:butt;stroke-linejoin:miter;stroke-miterlimit:4;stroke-dasharray:none;stroke-dashoffset:0;stroke-opacity:1;color-rendering:auto;image-rendering:auto;shape-rendering:auto;text-rendering:auto;enable-background:accumulate"
       d="M 485.52168,596.80649 A 112.71162,112.71162 0 0 1 372.8101,709.51807 112.71162,112.71162 0 0 1 260.09844,596.80649 112.71162,112.71162 0 0 1 372.8101,484.09492 112.71162,112.71162 0 0 1 485.52168,596.80649 Z"
       id="path14098-5-2-7-8-17" />
    <path
       inkscape:connector-curvature="0"
       style="color:#000000;clip-rule:nonzero;display:inline;overflow:visible;visibility:visible;opacity:1;isolation:auto;mix-blend-mode:normal;color-interpolation:sRGB;color-interpolation-filters:linearRGB;solid-color:#000000;solid-opacity:1;fill:#ffffff;fill-opacity:1;fill-rule:nonzero;stroke:#000000;stroke-width:8.38895512;stroke-linecap:butt;stroke-linejoin:miter;stroke-miterlimit:4;stroke-dasharray:none;stroke-dashoffset:0;stroke-opacity:1;color-rendering:auto;image-rendering:auto;shape-rendering:auto;text-rendering:auto;enable-background:accumulate"
       d="M 256.62131,367.96779 A 112.71162,112.71162 0 0 1 143.90974,480.67935 112.71162,112.71162 0 0 1 31.198082,367.96779 112.71162,112.71162 0 0 1 143.90974,255.25612 112.71162,112.71162 0 0 1 256.62131,367.96779 Z"
       id="path14098-3-6-4-27" />
    <path
       inkscape:connector-curvature="0"
       style="color:#000000;clip-rule:nonzero;display:inline;overflow:visible;visibility:visible;opacity:1;isolation:auto;mix-blend-mode:normal;color-interpolation:sRGB;color-interpolation-filters:linearRGB;solid-color:#000000;solid-opacity:1;fill:#ffffff;fill-opacity:1;fill-rule:nonzero;stroke:#000000;stroke-width:8.38895512;stroke-linecap:butt;stroke-linejoin:miter;stroke-miterlimit:4;stroke-dasharray:none;stroke-dashoffset:0;stroke-opacity:1;color-rendering:auto;image-rendering:auto;shape-rendering:auto;text-rendering:auto;enable-background:accumulate"
       d="M 714.29889,367.96779 A 112.71162,112.71162 0 0 1 601.58732,480.67935 112.71162,112.71162 0 0 1 488.87566,367.96779 112.71162,112.71162 0 0 1 601.58732,255.25612 112.71162,112.71162 0 0 1 714.29889,367.96779 Z"
       id="path14098-5-0-8-3-2" />
    <path
       inkscape:connector-curvature="0"
       style="color:#000000;clip-rule:nonzero;display:inline;overflow:visible;visibility:visible;opacity:1;isolation:auto;mix-blend-mode:normal;color-interpolation:sRGB;color-interpolation-filters:linearRGB;solid-color:#000000;solid-opacity:1;fill:#ffffff;fill-opacity:1;fill-rule:nonzero;stroke:#000000;stroke-width:8.38895512;stroke-linecap:butt;stroke-linejoin:miter;stroke-miterlimit:4;stroke-dasharray:none;stroke-dashoffset:0;stroke-opacity:1;color-rendering:auto;image-rendering:auto;shape-rendering:auto;text-rendering:auto;enable-background:accumulate"
       d="M 485.52168,367.96779 A 112.71162,112.71162 0 0 1 372.8101,480.67935 112.71162,112.71162 0 0 1 260.09844,367.96779 112.71162,112.71162 0 0 1 372.8101,255.25612 112.71162,112.71162 0 0 1 485.52168,367.96779 Z"
       id="path14098-5-2-7-8-1-2" />
    <path
       style="fill:none;fill-rule:evenodd;stroke:#000000;stroke-width:8.38895512px;stroke-linecap:butt;stroke-linejoin:miter;stroke-opacity:1"
       d="m 143.90974,26.417415 0,683.100655 228.90036,-683.100655 0,683.100655 228.77722,-683.100655 0,683.100655 L 714.29889,596.80649 31.198241,596.7813 714.29889,367.96994 31.198241,367.99513 714.29889,139.12908 31.198241,139.10389"
       id="path14333-6"
       inkscape:connector-curvature="0" />
    <path
       inkscape:connector-curvature="0"
       style="color:#000000;clip-rule:nonzero;display:inline;overflow:visible;visibility:visible;opacity:1;isolation:auto;mix-blend-mode:normal;color-interpolation:sRGB;color-interpolation-filters:linearRGB;solid-color:#000000;solid-opacity:1;fill:#ffffff;fill-opacity:1;fill-rule:nonzero;stroke:#000000;stroke-width:7.55006027;stroke-linecap:butt;stroke-linejoin:miter;stroke-miterlimit:4;stroke-dasharray:none;stroke-dashoffset:0;stroke-opacity:1;color-rendering:auto;image-rendering:auto;shape-rendering:auto;text-rendering:auto;enable-background:accumulate"
       d="M 474.25052,139.12169 A 101.44045,101.44046 0 0 1 372.8101,240.5622 101.44045,101.44046 0 0 1 271.36959,139.12169 101.44045,101.44046 0 0 1 372.8101,37.681271 101.44045,101.44046 0 0 1 474.25052,139.12169 Z"
       id="path14098-3-5-1" />
    <path
       inkscape:connector-curvature="0"
       style="color:#000000;clip-rule:nonzero;display:inline;overflow:visible;visibility:visible;opacity:1;isolation:auto;mix-blend-mode:normal;color-interpolation:sRGB;color-interpolation-filters:linearRGB;solid-color:#000000;solid-opacity:1;fill:#ffffff;fill-opacity:1;fill-rule:nonzero;stroke:#000000;stroke-width:7.55006027;stroke-linecap:butt;stroke-linejoin:miter;stroke-miterlimit:4;stroke-dasharray:none;stroke-dashoffset:0;stroke-opacity:1;color-rendering:auto;image-rendering:auto;shape-rendering:auto;text-rendering:auto;enable-background:accumulate"
       d="M 703.02775,139.12169 A 101.44045,101.44046 0 0 1 601.58732,240.5622 101.44045,101.44046 0 0 1 500.14682,139.12169 101.44045,101.44046 0 0 1 601.58732,37.681271 101.44045,101.44046 0 0 1 703.02775,139.12169 Z"
       id="path14098-3-5-1-0" />
    <path
       inkscape:connector-curvature="0"
       style="color:#000000;clip-rule:nonzero;display:inline;overflow:visible;visibility:visible;opacity:1;isolation:auto;mix-blend-mode:normal;color-interpolation:sRGB;color-interpolation-filters:linearRGB;solid-color:#000000;solid-opacity:1;fill:#ffffff;fill-opacity:1;fill-rule:nonzero;stroke:#000000;stroke-width:7.55006027;stroke-linecap:butt;stroke-linejoin:miter;stroke-miterlimit:4;stroke-dasharray:none;stroke-dashoffset:0;stroke-opacity:1;color-rendering:auto;image-rendering:auto;shape-rendering:auto;text-rendering:auto;enable-background:accumulate"
       d="M 245.35016,367.95856 A 101.44045,101.44046 0 0 1 143.90974,469.39906 101.44045,101.44046 0 0 1 42.469224,367.95856 101.44045,101.44046 0 0 1 143.90974,266.51813 101.44045,101.44046 0 0 1 245.35016,367.95856 Z"
       id="path14098-3-5-6" />
    <path
       inkscape:connector-curvature="0"
       style="color:#000000;clip-rule:nonzero;display:inline;overflow:visible;visibility:visible;opacity:1;isolation:auto;mix-blend-mode:normal;color-interpolation:sRGB;color-interpolation-filters:linearRGB;solid-color:#000000;solid-opacity:1;fill:#ffffff;fill-opacity:1;fill-rule:nonzero;stroke:#000000;stroke-width:7.55006027;stroke-linecap:butt;stroke-linejoin:miter;stroke-miterlimit:4;stroke-dasharray:none;stroke-dashoffset:0;stroke-opacity:1;color-rendering:auto;image-rendering:auto;shape-rendering:auto;text-rendering:auto;enable-background:accumulate"
       d="M 474.25052,367.96779 A 101.44045,101.44046 0 0 1 372.8101,469.40821 101.44045,101.44046 0 0 1 271.36959,367.96779 101.44045,101.44046 0 0 1 372.8101,266.52728 101.44045,101.44046 0 0 1 474.25052,367.96779 Z"
       id="path14098-3-5-1-1" />
    <path
       inkscape:connector-curvature="0"
       style="color:#000000;clip-rule:nonzero;display:inline;overflow:visible;visibility:visible;opacity:1;isolation:auto;mix-blend-mode:normal;color-interpolation:sRGB;color-interpolation-filters:linearRGB;solid-color:#000000;solid-opacity:1;fill:#ffffff;fill-opacity:1;fill-rule:nonzero;stroke:#000000;stroke-width:7.55006027;stroke-linecap:butt;stroke-linejoin:miter;stroke-miterlimit:4;stroke-dasharray:none;stroke-dashoffset:0;stroke-opacity:1;color-rendering:auto;image-rendering:auto;shape-rendering:auto;text-rendering:auto;enable-background:accumulate"
       d="M 703.02775,367.96779 A 101.44045,101.44046 0 0 1 601.58732,469.40821 101.44045,101.44046 0 0 1 500.14682,367.96779 101.44045,101.44046 0 0 1 601.58732,266.52728 101.44045,101.44046 0 0 1 703.02775,367.96779 Z"
       id="path14098-3-5-1-0-5" />
    <path
       inkscape:connector-curvature="0"
       style="color:#000000;clip-rule:nonzero;display:inline;overflow:visible;visibility:visible;opacity:1;isolation:auto;mix-blend-mode:normal;color-interpolation:sRGB;color-interpolation-filters:linearRGB;solid-color:#000000;solid-opacity:1;fill:#ffffff;fill-opacity:1;fill-rule:nonzero;stroke:#000000;stroke-width:7.55006027;stroke-linecap:butt;stroke-linejoin:miter;stroke-miterlimit:4;stroke-dasharray:none;stroke-dashoffset:0;stroke-opacity:1;color-rendering:auto;image-rendering:auto;shape-rendering:auto;text-rendering:auto;enable-background:accumulate"
       d="M 245.35016,596.79727 A 101.44045,101.44046 0 0 1 143.90974,698.23778 101.44045,101.44046 0 0 1 42.469224,596.79727 101.44045,101.44046 0 0 1 143.90974,495.35685 101.44045,101.44046 0 0 1 245.35016,596.79727 Z"
       id="path14098-3-5-6-9" />
    <path
       inkscape:connector-curvature="0"
       style="color:#000000;clip-rule:nonzero;display:inline;overflow:visible;visibility:visible;opacity:1;isolation:auto;mix-blend-mode:normal;color-interpolation:sRGB;color-interpolation-filters:linearRGB;solid-color:#000000;solid-opacity:1;fill:#ffffff;fill-opacity:1;fill-rule:nonzero;stroke:#000000;stroke-width:7.55006027;stroke-linecap:butt;stroke-linejoin:miter;stroke-miterlimit:4;stroke-dasharray:none;stroke-dashoffset:0;stroke-opacity:1;color-rendering:auto;image-rendering:auto;shape-rendering:auto;text-rendering:auto;enable-background:accumulate"
       d="M 474.25052,596.80649 A 101.44045,101.44046 0 0 1 372.8101,698.24691 101.44045,101.44046 0 0 1 271.36959,596.80649 101.44045,101.44046 0 0 1 372.8101,495.36607 101.44045,101.44046 0 0 1 474.25052,596.80649 Z"
       id="path14098-3-5-1-1-4" />
    <path
       inkscape:connector-curvature="0"
       style="color:#000000;clip-rule:nonzero;display:inline;overflow:visible;visibility:visible;opacity:1;isolation:auto;mix-blend-mode:normal;color-interpolation:sRGB;color-interpolation-filters:linearRGB;solid-color:#000000;solid-opacity:1;fill:#ffffff;fill-opacity:1;fill-rule:nonzero;stroke:#000000;stroke-width:7.55006027;stroke-linecap:butt;stroke-linejoin:miter;stroke-miterlimit:4;stroke-dasharray:none;stroke-dashoffset:0;stroke-opacity:1;color-rendering:auto;image-rendering:auto;shape-rendering:auto;text-rendering:auto;enable-background:accumulate"
       d="M 703.02775,596.80649 A 101.44045,101.44046 0 0 1 601.58732,698.24691 101.44045,101.44046 0 0 1 500.14682,596.80649 101.44045,101.44046 0 0 1 601.58732,495.36607 101.44045,101.44046 0 0 1 703.02775,596.80649 Z"
       id="path14098-3-5-1-0-5-9" />
    <path
       inkscape:connector-curvature="0"
       style="color:#000000;clip-rule:nonzero;display:inline;overflow:visible;visibility:visible;opacity:1;isolation:auto;mix-blend-mode:normal;color-interpolation:sRGB;color-interpolation-filters:linearRGB;solid-color:#000000;solid-opacity:1;fill:#ffffff;fill-opacity:1;fill-rule:nonzero;stroke:#000000;stroke-width:7.55006027;stroke-linecap:butt;stroke-linejoin:miter;stroke-miterlimit:4;stroke-dasharray:none;stroke-dashoffset:0;stroke-opacity:1;color-rendering:auto;image-rendering:auto;shape-rendering:auto;text-rendering:auto;enable-background:accumulate"
       d="M 245.35016,139.11254 A 101.44045,101.44046 0 0 1 143.90974,240.55297 101.44045,101.44046 0 0 1 42.469224,139.11254 101.44045,101.44046 0 0 1 143.90974,37.672119 101.44045,101.44046 0 0 1 245.35016,139.11254 Z"
       id="path14098-3-5" />
  </g>
</svg>
