<?xml version="1.0" encoding="UTF-8" standalone="no"?>
<!-- Created with Inkscape (http://www.inkscape.org/) -->

<svg
   xmlns:dc="http://purl.org/dc/elements/1.1/"
   xmlns:cc="http://creativecommons.org/ns#"
   xmlns:rdf="http://www.w3.org/1999/02/22-rdf-syntax-ns#"
   xmlns:svg="http://www.w3.org/2000/svg"
   xmlns="http://www.w3.org/2000/svg"
   xmlns:sodipodi="http://sodipodi.sourceforge.net/DTD/sodipodi-0.dtd"
   xmlns:inkscape="http://www.inkscape.org/namespaces/inkscape"
   width="210mm"
   height="297mm"
   viewBox="0 0 744.09448819 1052.3622047"
   id="svg15524"
   version="1.1"
   inkscape:version="0.91 r13725"
   sodipodi:docname="weecircles.svg">
  <defs
     id="defs15526" />
  <sodipodi:namedview
     id="base"
     pagecolor="#ffffff"
     bordercolor="#666666"
     borderopacity="1.0"
     inkscape:pageopacity="0.0"
     inkscape:pageshadow="2"
     inkscape:zoom="0.49497475"
     inkscape:cx="181.89072"
     inkscape:cy="543.0704"
     inkscape:document-units="px"
     inkscape:current-layer="layer1"
     showgrid="false"
     inkscape:window-width="1366"
     inkscape:window-height="714"
     inkscape:window-x="0"
     inkscape:window-y="25"
     inkscape:window-maximized="1" />
  <metadata
     id="metadata15529">
    <rdf:RDF>
      <cc:Work
         rdf:about="">
        <dc:format>image/svg+xml</dc:format>
        <dc:type
           rdf:resource="http://purl.org/dc/dcmitype/StillImage" />
        <dc:title></dc:title>
      </cc:Work>
    </rdf:RDF>
  </metadata>
  <g
     inkscape:label="Layer 1"
     inkscape:groupmode="layer"
     id="layer1">
    <path
       inkscape:connector-curvature="0"
       style="color:#000000;clip-rule:nonzero;display:inline;overflow:visible;visibility:visible;opacity:1;isolation:auto;mix-blend-mode:normal;color-interpolation:sRGB;color-interpolation-filters:linearRGB;solid-color:#000000;solid-opacity:1;fill:#ffffff;fill-opacity:1;fill-rule:nonzero;stroke:#000000;stroke-width:3.7223208;stroke-linecap:butt;stroke-linejoin:miter;stroke-miterlimit:4;stroke-dasharray:none;stroke-dashoffset:0;stroke-opacity:1;color-rendering:auto;image-rendering:auto;shape-rendering:auto;text-rendering:auto;enable-background:accumulate"
       d="m 222.43877,220.60327 303.10325,0 0,303.10328 -303.10325,0 z"
       id="rect13997-6-54-49-0" />
    <path
       inkscape:connector-curvature="0"
       style="color:#000000;clip-rule:nonzero;display:inline;overflow:visible;visibility:visible;opacity:1;isolation:auto;mix-blend-mode:normal;color-interpolation:sRGB;color-interpolation-filters:linearRGB;solid-color:#000000;solid-opacity:1;fill:#ffffff;fill-opacity:1;fill-rule:nonzero;stroke:#000000;stroke-width:3.35008883;stroke-linecap:butt;stroke-linejoin:miter;stroke-miterlimit:4;stroke-dasharray:none;stroke-dashoffset:0;stroke-opacity:1;color-rendering:auto;image-rendering:auto;shape-rendering:auto;text-rendering:auto;enable-background:accumulate"
       d="m 419.02852,270.61206 a 45.010836,45.01084 0 0 1 -45.01083,45.01083 45.010836,45.01084 0 0 1 -45.01086,-45.01083 45.010836,45.01084 0 0 1 45.01086,-45.01083 45.010836,45.01084 0 0 1 45.01083,45.01083 z"
       id="path14098-3-5-1-7" />
    <path
       inkscape:connector-curvature="0"
       style="color:#000000;clip-rule:nonzero;display:inline;overflow:visible;visibility:visible;opacity:1;isolation:auto;mix-blend-mode:normal;color-interpolation:sRGB;color-interpolation-filters:linearRGB;solid-color:#000000;solid-opacity:1;fill:#ffffff;fill-opacity:1;fill-rule:nonzero;stroke:#000000;stroke-width:3.35008883;stroke-linecap:butt;stroke-linejoin:miter;stroke-miterlimit:4;stroke-dasharray:none;stroke-dashoffset:0;stroke-opacity:1;color-rendering:auto;image-rendering:auto;shape-rendering:auto;text-rendering:auto;enable-background:accumulate"
       d="M 520.54083,270.61206 A 45.010836,45.01084 0 0 1 475.53,315.62289 45.010836,45.01084 0 0 1 430.51914,270.61206 45.010836,45.01084 0 0 1 475.53,225.60123 a 45.010836,45.01084 0 0 1 45.01083,45.01083 z"
       id="path14098-3-5-1-0-6" />
    <path
       inkscape:connector-curvature="0"
       style="color:#000000;clip-rule:nonzero;display:inline;overflow:visible;visibility:visible;opacity:1;isolation:auto;mix-blend-mode:normal;color-interpolation:sRGB;color-interpolation-filters:linearRGB;solid-color:#000000;solid-opacity:1;fill:#ffffff;fill-opacity:1;fill-rule:nonzero;stroke:#000000;stroke-width:3.35008883;stroke-linecap:butt;stroke-linejoin:miter;stroke-miterlimit:4;stroke-dasharray:none;stroke-dashoffset:0;stroke-opacity:1;color-rendering:auto;image-rendering:auto;shape-rendering:auto;text-rendering:auto;enable-background:accumulate"
       d="m 317.46157,372.15084 a 45.010836,45.01084 0 0 1 -45.01081,45.01083 45.010836,45.01084 0 0 1 -45.01086,-45.01083 45.010836,45.01084 0 0 1 45.01086,-45.01082 45.010836,45.01084 0 0 1 45.01081,45.01082 z"
       id="path14098-3-5-6-7" />
    <path
       inkscape:connector-curvature="0"
       style="color:#000000;clip-rule:nonzero;display:inline;overflow:visible;visibility:visible;opacity:1;isolation:auto;mix-blend-mode:normal;color-interpolation:sRGB;color-interpolation-filters:linearRGB;solid-color:#000000;solid-opacity:1;fill:#ffffff;fill-opacity:1;fill-rule:nonzero;stroke:#000000;stroke-width:3.35008883;stroke-linecap:butt;stroke-linejoin:miter;stroke-miterlimit:4;stroke-dasharray:none;stroke-dashoffset:0;stroke-opacity:1;color-rendering:auto;image-rendering:auto;shape-rendering:auto;text-rendering:auto;enable-background:accumulate"
       d="m 419.02852,372.1549 a 45.010836,45.01084 0 0 1 -45.01083,45.01086 45.010836,45.01084 0 0 1 -45.01086,-45.01086 45.010836,45.01084 0 0 1 45.01086,-45.01083 45.010836,45.01084 0 0 1 45.01083,45.01083 z"
       id="path14098-3-5-1-1-3" />
    <path
       inkscape:connector-curvature="0"
       style="color:#000000;clip-rule:nonzero;display:inline;overflow:visible;visibility:visible;opacity:1;isolation:auto;mix-blend-mode:normal;color-interpolation:sRGB;color-interpolation-filters:linearRGB;solid-color:#000000;solid-opacity:1;fill:#ffffff;fill-opacity:1;fill-rule:nonzero;stroke:#000000;stroke-width:3.35008883;stroke-linecap:butt;stroke-linejoin:miter;stroke-miterlimit:4;stroke-dasharray:none;stroke-dashoffset:0;stroke-opacity:1;color-rendering:auto;image-rendering:auto;shape-rendering:auto;text-rendering:auto;enable-background:accumulate"
       d="M 520.54083,372.1549 A 45.010836,45.01084 0 0 1 475.53,417.16576 45.010836,45.01084 0 0 1 430.51914,372.1549 45.010836,45.01084 0 0 1 475.53,327.14407 45.010836,45.01084 0 0 1 520.54083,372.1549 Z"
       id="path14098-3-5-1-0-5-6" />
    <path
       inkscape:connector-curvature="0"
       style="color:#000000;clip-rule:nonzero;display:inline;overflow:visible;visibility:visible;opacity:1;isolation:auto;mix-blend-mode:normal;color-interpolation:sRGB;color-interpolation-filters:linearRGB;solid-color:#000000;solid-opacity:1;fill:#ffffff;fill-opacity:1;fill-rule:nonzero;stroke:#000000;stroke-width:3.35008883;stroke-linecap:butt;stroke-linejoin:miter;stroke-miterlimit:4;stroke-dasharray:none;stroke-dashoffset:0;stroke-opacity:1;color-rendering:auto;image-rendering:auto;shape-rendering:auto;text-rendering:auto;enable-background:accumulate"
       d="m 317.46157,473.69043 a 45.010836,45.01084 0 0 1 -45.01081,45.01086 45.010836,45.01084 0 0 1 -45.01086,-45.01086 45.010836,45.01084 0 0 1 45.01086,-45.01082 45.010836,45.01084 0 0 1 45.01081,45.01082 z"
       id="path14098-3-5-6-9-5" />
    <path
       inkscape:connector-curvature="0"
       style="color:#000000;clip-rule:nonzero;display:inline;overflow:visible;visibility:visible;opacity:1;isolation:auto;mix-blend-mode:normal;color-interpolation:sRGB;color-interpolation-filters:linearRGB;solid-color:#000000;solid-opacity:1;fill:#ffffff;fill-opacity:1;fill-rule:nonzero;stroke:#000000;stroke-width:3.35008883;stroke-linecap:butt;stroke-linejoin:miter;stroke-miterlimit:4;stroke-dasharray:none;stroke-dashoffset:0;stroke-opacity:1;color-rendering:auto;image-rendering:auto;shape-rendering:auto;text-rendering:auto;enable-background:accumulate"
       d="m 419.02852,473.69453 a 45.010836,45.01084 0 0 1 -45.01083,45.01082 45.010836,45.01084 0 0 1 -45.01086,-45.01082 45.010836,45.01084 0 0 1 45.01086,-45.01087 45.010836,45.01084 0 0 1 45.01083,45.01087 z"
       id="path14098-3-5-1-1-4-6" />
    <path
       inkscape:connector-curvature="0"
       style="color:#000000;clip-rule:nonzero;display:inline;overflow:visible;visibility:visible;opacity:1;isolation:auto;mix-blend-mode:normal;color-interpolation:sRGB;color-interpolation-filters:linearRGB;solid-color:#000000;solid-opacity:1;fill:#ffffff;fill-opacity:1;fill-rule:nonzero;stroke:#000000;stroke-width:3.35008883;stroke-linecap:butt;stroke-linejoin:miter;stroke-miterlimit:4;stroke-dasharray:none;stroke-dashoffset:0;stroke-opacity:1;color-rendering:auto;image-rendering:auto;shape-rendering:auto;text-rendering:auto;enable-background:accumulate"
       d="M 520.54083,473.69453 A 45.010836,45.01084 0 0 1 475.53,518.70535 45.010836,45.01084 0 0 1 430.51914,473.69453 45.010836,45.01084 0 0 1 475.53,428.68366 a 45.010836,45.01084 0 0 1 45.01083,45.01087 z"
       id="path14098-3-5-1-0-5-9-3" />
    <path
       inkscape:connector-curvature="0"
       style="color:#000000;clip-rule:nonzero;display:inline;overflow:visible;visibility:visible;opacity:1;isolation:auto;mix-blend-mode:normal;color-interpolation:sRGB;color-interpolation-filters:linearRGB;solid-color:#000000;solid-opacity:1;fill:#ffffff;fill-opacity:1;fill-rule:nonzero;stroke:#000000;stroke-width:3.35008883;stroke-linecap:butt;stroke-linejoin:miter;stroke-miterlimit:4;stroke-dasharray:none;stroke-dashoffset:0;stroke-opacity:1;color-rendering:auto;image-rendering:auto;shape-rendering:auto;text-rendering:auto;enable-background:accumulate"
       d="M 317.46157,270.608 A 45.010836,45.01084 0 0 1 272.45076,315.61884 45.010836,45.01084 0 0 1 227.4399,270.608 45.010836,45.01084 0 0 1 272.45076,225.59714 45.010836,45.01084 0 0 1 317.46157,270.608 Z"
       id="path14098-3-5-9" />
    <path
       inkscape:connector-curvature="0"
       style="color:#000000;clip-rule:nonzero;display:inline;overflow:visible;visibility:visible;opacity:1;isolation:auto;mix-blend-mode:normal;color-interpolation:sRGB;color-interpolation-filters:linearRGB;solid-color:#000000;solid-opacity:1;fill:#ffffff;fill-opacity:1;fill-rule:nonzero;stroke:#000000;stroke-width:3.35008883;stroke-linecap:butt;stroke-linejoin:miter;stroke-miterlimit:4;stroke-dasharray:none;stroke-dashoffset:0;stroke-opacity:1;color-rendering:auto;image-rendering:auto;shape-rendering:auto;text-rendering:auto;enable-background:accumulate"
       d="m 215.94932,270.61206 a 45.010836,45.01084 0 0 1 -45.01083,45.01083 45.010836,45.01084 0 0 1 -45.01086,-45.01083 45.010836,45.01084 0 0 1 45.01086,-45.01083 45.010836,45.01084 0 0 1 45.01083,45.01083 z"
       id="path14098-3-5-1-7-8" />
    <path
       inkscape:connector-curvature="0"
       style="color:#000000;clip-rule:nonzero;display:inline;overflow:visible;visibility:visible;opacity:1;isolation:auto;mix-blend-mode:normal;color-interpolation:sRGB;color-interpolation-filters:linearRGB;solid-color:#000000;solid-opacity:1;fill:#ffffff;fill-opacity:1;fill-rule:nonzero;stroke:#000000;stroke-width:3.35008883;stroke-linecap:butt;stroke-linejoin:miter;stroke-miterlimit:4;stroke-dasharray:none;stroke-dashoffset:0;stroke-opacity:1;color-rendering:auto;image-rendering:auto;shape-rendering:auto;text-rendering:auto;enable-background:accumulate"
       d="M 114.38237,372.15084 A 45.010836,45.01084 0 0 1 69.371541,417.16167 45.010836,45.01084 0 0 1 24.360678,372.15084 45.010836,45.01084 0 0 1 69.371541,327.14002 45.010836,45.01084 0 0 1 114.38237,372.15084 Z"
       id="path14098-3-5-6-7-2" />
    <path
       inkscape:connector-curvature="0"
       style="color:#000000;clip-rule:nonzero;display:inline;overflow:visible;visibility:visible;opacity:1;isolation:auto;mix-blend-mode:normal;color-interpolation:sRGB;color-interpolation-filters:linearRGB;solid-color:#000000;solid-opacity:1;fill:#ffffff;fill-opacity:1;fill-rule:nonzero;stroke:#000000;stroke-width:3.35008883;stroke-linecap:butt;stroke-linejoin:miter;stroke-miterlimit:4;stroke-dasharray:none;stroke-dashoffset:0;stroke-opacity:1;color-rendering:auto;image-rendering:auto;shape-rendering:auto;text-rendering:auto;enable-background:accumulate"
       d="m 215.94932,372.1549 a 45.010836,45.01084 0 0 1 -45.01083,45.01086 45.010836,45.01084 0 0 1 -45.01086,-45.01086 45.010836,45.01084 0 0 1 45.01086,-45.01083 45.010836,45.01084 0 0 1 45.01083,45.01083 z"
       id="path14098-3-5-1-1-3-9" />
    <path
       inkscape:connector-curvature="0"
       style="color:#000000;clip-rule:nonzero;display:inline;overflow:visible;visibility:visible;opacity:1;isolation:auto;mix-blend-mode:normal;color-interpolation:sRGB;color-interpolation-filters:linearRGB;solid-color:#000000;solid-opacity:1;fill:#ffffff;fill-opacity:1;fill-rule:nonzero;stroke:#000000;stroke-width:3.35008883;stroke-linecap:butt;stroke-linejoin:miter;stroke-miterlimit:4;stroke-dasharray:none;stroke-dashoffset:0;stroke-opacity:1;color-rendering:auto;image-rendering:auto;shape-rendering:auto;text-rendering:auto;enable-background:accumulate"
       d="M 114.38237,473.69043 A 45.010836,45.01084 0 0 1 69.371541,518.70129 45.010836,45.01084 0 0 1 24.360678,473.69043 45.010836,45.01084 0 0 1 69.371541,428.67961 45.010836,45.01084 0 0 1 114.38237,473.69043 Z"
       id="path14098-3-5-6-9-5-9" />
    <path
       inkscape:connector-curvature="0"
       style="color:#000000;clip-rule:nonzero;display:inline;overflow:visible;visibility:visible;opacity:1;isolation:auto;mix-blend-mode:normal;color-interpolation:sRGB;color-interpolation-filters:linearRGB;solid-color:#000000;solid-opacity:1;fill:#ffffff;fill-opacity:1;fill-rule:nonzero;stroke:#000000;stroke-width:3.35008883;stroke-linecap:butt;stroke-linejoin:miter;stroke-miterlimit:4;stroke-dasharray:none;stroke-dashoffset:0;stroke-opacity:1;color-rendering:auto;image-rendering:auto;shape-rendering:auto;text-rendering:auto;enable-background:accumulate"
       d="m 215.94932,473.69453 a 45.010836,45.01084 0 0 1 -45.01083,45.01082 45.010836,45.01084 0 0 1 -45.01086,-45.01082 45.010836,45.01084 0 0 1 45.01086,-45.01087 45.010836,45.01084 0 0 1 45.01083,45.01087 z"
       id="path14098-3-5-1-1-4-6-0" />
    <path
       inkscape:connector-curvature="0"
       style="color:#000000;clip-rule:nonzero;display:inline;overflow:visible;visibility:visible;opacity:1;isolation:auto;mix-blend-mode:normal;color-interpolation:sRGB;color-interpolation-filters:linearRGB;solid-color:#000000;solid-opacity:1;fill:#ffffff;fill-opacity:1;fill-rule:nonzero;stroke:#000000;stroke-width:3.35008883;stroke-linecap:butt;stroke-linejoin:miter;stroke-miterlimit:4;stroke-dasharray:none;stroke-dashoffset:0;stroke-opacity:1;color-rendering:auto;image-rendering:auto;shape-rendering:auto;text-rendering:auto;enable-background:accumulate"
       d="M 114.38237,270.608 A 45.010836,45.01084 0 0 1 69.371541,315.61884 45.010836,45.01084 0 0 1 24.360678,270.608 45.010836,45.01084 0 0 1 69.371541,225.59714 45.010836,45.01084 0 0 1 114.38237,270.608 Z"
       id="path14098-3-5-9-8" />
    <path
       inkscape:connector-curvature="0"
       style="color:#000000;clip-rule:nonzero;display:inline;overflow:visible;visibility:visible;opacity:1;isolation:auto;mix-blend-mode:normal;color-interpolation:sRGB;color-interpolation-filters:linearRGB;solid-color:#000000;solid-opacity:1;fill:#ffffff;fill-opacity:1;fill-rule:nonzero;stroke:#000000;stroke-width:3.35008883;stroke-linecap:butt;stroke-linejoin:miter;stroke-miterlimit:4;stroke-dasharray:none;stroke-dashoffset:0;stroke-opacity:1;color-rendering:auto;image-rendering:auto;shape-rendering:auto;text-rendering:auto;enable-background:accumulate"
       d="M 419.02852,67.529601 A 45.010836,45.01084 0 0 1 374.01769,112.54043 45.010836,45.01084 0 0 1 329.00683,67.529601 45.010836,45.01084 0 0 1 374.01769,22.518776 45.010836,45.01084 0 0 1 419.02852,67.529601 Z"
       id="path14098-3-5-1-7-3" />
    <path
       inkscape:connector-curvature="0"
       style="color:#000000;clip-rule:nonzero;display:inline;overflow:visible;visibility:visible;opacity:1;isolation:auto;mix-blend-mode:normal;color-interpolation:sRGB;color-interpolation-filters:linearRGB;solid-color:#000000;solid-opacity:1;fill:#ffffff;fill-opacity:1;fill-rule:nonzero;stroke:#000000;stroke-width:3.35008883;stroke-linecap:butt;stroke-linejoin:miter;stroke-miterlimit:4;stroke-dasharray:none;stroke-dashoffset:0;stroke-opacity:1;color-rendering:auto;image-rendering:auto;shape-rendering:auto;text-rendering:auto;enable-background:accumulate"
       d="M 520.54083,67.529601 A 45.010836,45.01084 0 0 1 475.53,112.54043 45.010836,45.01084 0 0 1 430.51914,67.529601 45.010836,45.01084 0 0 1 475.53,22.518776 45.010836,45.01084 0 0 1 520.54083,67.529601 Z"
       id="path14098-3-5-1-0-6-0" />
    <path
       inkscape:connector-curvature="0"
       style="color:#000000;clip-rule:nonzero;display:inline;overflow:visible;visibility:visible;opacity:1;isolation:auto;mix-blend-mode:normal;color-interpolation:sRGB;color-interpolation-filters:linearRGB;solid-color:#000000;solid-opacity:1;fill:#ffffff;fill-opacity:1;fill-rule:nonzero;stroke:#000000;stroke-width:3.35008883;stroke-linecap:butt;stroke-linejoin:miter;stroke-miterlimit:4;stroke-dasharray:none;stroke-dashoffset:0;stroke-opacity:1;color-rendering:auto;image-rendering:auto;shape-rendering:auto;text-rendering:auto;enable-background:accumulate"
       d="m 317.46157,169.06837 a 45.010836,45.01084 0 0 1 -45.01081,45.01083 45.010836,45.01084 0 0 1 -45.01086,-45.01083 45.010836,45.01084 0 0 1 45.01086,-45.01082 45.010836,45.01084 0 0 1 45.01081,45.01082 z"
       id="path14098-3-5-6-7-4" />
    <path
       inkscape:connector-curvature="0"
       style="color:#000000;clip-rule:nonzero;display:inline;overflow:visible;visibility:visible;opacity:1;isolation:auto;mix-blend-mode:normal;color-interpolation:sRGB;color-interpolation-filters:linearRGB;solid-color:#000000;solid-opacity:1;fill:#ffffff;fill-opacity:1;fill-rule:nonzero;stroke:#000000;stroke-width:3.35008883;stroke-linecap:butt;stroke-linejoin:miter;stroke-miterlimit:4;stroke-dasharray:none;stroke-dashoffset:0;stroke-opacity:1;color-rendering:auto;image-rendering:auto;shape-rendering:auto;text-rendering:auto;enable-background:accumulate"
       d="m 419.02852,169.07243 a 45.010836,45.01084 0 0 1 -45.01083,45.01086 45.010836,45.01084 0 0 1 -45.01086,-45.01086 45.010836,45.01084 0 0 1 45.01086,-45.01082 45.010836,45.01084 0 0 1 45.01083,45.01082 z"
       id="path14098-3-5-1-1-3-4" />
    <path
       inkscape:connector-curvature="0"
       style="color:#000000;clip-rule:nonzero;display:inline;overflow:visible;visibility:visible;opacity:1;isolation:auto;mix-blend-mode:normal;color-interpolation:sRGB;color-interpolation-filters:linearRGB;solid-color:#000000;solid-opacity:1;fill:#ffffff;fill-opacity:1;fill-rule:nonzero;stroke:#000000;stroke-width:3.35008883;stroke-linecap:butt;stroke-linejoin:miter;stroke-miterlimit:4;stroke-dasharray:none;stroke-dashoffset:0;stroke-opacity:1;color-rendering:auto;image-rendering:auto;shape-rendering:auto;text-rendering:auto;enable-background:accumulate"
       d="M 520.54083,169.07243 A 45.010836,45.01084 0 0 1 475.53,214.08329 45.010836,45.01084 0 0 1 430.51914,169.07243 45.010836,45.01084 0 0 1 475.53,124.06161 a 45.010836,45.01084 0 0 1 45.01083,45.01082 z"
       id="path14098-3-5-1-0-5-6-4" />
    <path
       inkscape:connector-curvature="0"
       style="color:#000000;clip-rule:nonzero;display:inline;overflow:visible;visibility:visible;opacity:1;isolation:auto;mix-blend-mode:normal;color-interpolation:sRGB;color-interpolation-filters:linearRGB;solid-color:#000000;solid-opacity:1;fill:#ffffff;fill-opacity:1;fill-rule:nonzero;stroke:#000000;stroke-width:3.35008883;stroke-linecap:butt;stroke-linejoin:miter;stroke-miterlimit:4;stroke-dasharray:none;stroke-dashoffset:0;stroke-opacity:1;color-rendering:auto;image-rendering:auto;shape-rendering:auto;text-rendering:auto;enable-background:accumulate"
       d="M 317.46157,67.525544 A 45.010836,45.01084 0 0 1 272.45076,112.53637 45.010836,45.01084 0 0 1 227.4399,67.525544 45.010836,45.01084 0 0 1 272.45076,22.514681 45.010836,45.01084 0 0 1 317.46157,67.525544 Z"
       id="path14098-3-5-9-3" />
    <path
       inkscape:connector-curvature="0"
       style="color:#000000;clip-rule:nonzero;display:inline;overflow:visible;visibility:visible;opacity:1;isolation:auto;mix-blend-mode:normal;color-interpolation:sRGB;color-interpolation-filters:linearRGB;solid-color:#000000;solid-opacity:1;fill:#ffffff;fill-opacity:1;fill-rule:nonzero;stroke:#000000;stroke-width:3.35008883;stroke-linecap:butt;stroke-linejoin:miter;stroke-miterlimit:4;stroke-dasharray:none;stroke-dashoffset:0;stroke-opacity:1;color-rendering:auto;image-rendering:auto;shape-rendering:auto;text-rendering:auto;enable-background:accumulate"
       d="M 215.94932,67.529601 A 45.010836,45.01084 0 0 1 170.93849,112.54043 45.010836,45.01084 0 0 1 125.92763,67.529601 45.010836,45.01084 0 0 1 170.93849,22.518776 45.010836,45.01084 0 0 1 215.94932,67.529601 Z"
       id="path14098-3-5-1-7-8-1" />
    <path
       inkscape:connector-curvature="0"
       style="color:#000000;clip-rule:nonzero;display:inline;overflow:visible;visibility:visible;opacity:1;isolation:auto;mix-blend-mode:normal;color-interpolation:sRGB;color-interpolation-filters:linearRGB;solid-color:#000000;solid-opacity:1;fill:#ffffff;fill-opacity:1;fill-rule:nonzero;stroke:#000000;stroke-width:3.35008883;stroke-linecap:butt;stroke-linejoin:miter;stroke-miterlimit:4;stroke-dasharray:none;stroke-dashoffset:0;stroke-opacity:1;color-rendering:auto;image-rendering:auto;shape-rendering:auto;text-rendering:auto;enable-background:accumulate"
       d="M 114.38237,169.06837 A 45.010836,45.01084 0 0 1 69.371541,214.0792 45.010836,45.01084 0 0 1 24.360678,169.06837 45.010836,45.01084 0 0 1 69.371541,124.05755 45.010836,45.01084 0 0 1 114.38237,169.06837 Z"
       id="path14098-3-5-6-7-2-7" />
    <path
       inkscape:connector-curvature="0"
       style="color:#000000;clip-rule:nonzero;display:inline;overflow:visible;visibility:visible;opacity:1;isolation:auto;mix-blend-mode:normal;color-interpolation:sRGB;color-interpolation-filters:linearRGB;solid-color:#000000;solid-opacity:1;fill:#ffffff;fill-opacity:1;fill-rule:nonzero;stroke:#000000;stroke-width:3.35008883;stroke-linecap:butt;stroke-linejoin:miter;stroke-miterlimit:4;stroke-dasharray:none;stroke-dashoffset:0;stroke-opacity:1;color-rendering:auto;image-rendering:auto;shape-rendering:auto;text-rendering:auto;enable-background:accumulate"
       d="m 215.94932,169.07243 a 45.010836,45.01084 0 0 1 -45.01083,45.01086 45.010836,45.01084 0 0 1 -45.01086,-45.01086 45.010836,45.01084 0 0 1 45.01086,-45.01082 45.010836,45.01084 0 0 1 45.01083,45.01082 z"
       id="path14098-3-5-1-1-3-9-5" />
    <path
       inkscape:connector-curvature="0"
       style="color:#000000;clip-rule:nonzero;display:inline;overflow:visible;visibility:visible;opacity:1;isolation:auto;mix-blend-mode:normal;color-interpolation:sRGB;color-interpolation-filters:linearRGB;solid-color:#000000;solid-opacity:1;fill:#ffffff;fill-opacity:1;fill-rule:nonzero;stroke:#000000;stroke-width:3.35008883;stroke-linecap:butt;stroke-linejoin:miter;stroke-miterlimit:4;stroke-dasharray:none;stroke-dashoffset:0;stroke-opacity:1;color-rendering:auto;image-rendering:auto;shape-rendering:auto;text-rendering:auto;enable-background:accumulate"
       d="M 114.38237,67.525544 A 45.010836,45.01084 0 0 1 69.371541,112.53637 45.010836,45.01084 0 0 1 24.360678,67.525544 45.010836,45.01084 0 0 1 69.371541,22.514681 45.010836,45.01084 0 0 1 114.38237,67.525544 Z"
       id="path14098-3-5-9-8-2" />
    <path
       inkscape:connector-curvature="0"
       style="color:#000000;clip-rule:nonzero;display:inline;overflow:visible;visibility:visible;opacity:1;isolation:auto;mix-blend-mode:normal;color-interpolation:sRGB;color-interpolation-filters:linearRGB;solid-color:#000000;solid-opacity:1;fill:#ffffff;fill-opacity:1;fill-rule:nonzero;stroke:#000000;stroke-width:3.35008883;stroke-linecap:butt;stroke-linejoin:miter;stroke-miterlimit:4;stroke-dasharray:none;stroke-dashoffset:0;stroke-opacity:1;color-rendering:auto;image-rendering:auto;shape-rendering:auto;text-rendering:auto;enable-background:accumulate"
       d="m 622.69843,270.61206 a 45.010836,45.01084 0 0 1 -45.01082,45.01083 45.010836,45.01084 0 0 1 -45.01086,-45.01083 45.010836,45.01084 0 0 1 45.01086,-45.01083 45.010836,45.01084 0 0 1 45.01082,45.01083 z"
       id="path14098-3-5-1-7-7" />
    <path
       inkscape:connector-curvature="0"
       style="color:#000000;clip-rule:nonzero;display:inline;overflow:visible;visibility:visible;opacity:1;isolation:auto;mix-blend-mode:normal;color-interpolation:sRGB;color-interpolation-filters:linearRGB;solid-color:#000000;solid-opacity:1;fill:#ffffff;fill-opacity:1;fill-rule:nonzero;stroke:#000000;stroke-width:3.35008883;stroke-linecap:butt;stroke-linejoin:miter;stroke-miterlimit:4;stroke-dasharray:none;stroke-dashoffset:0;stroke-opacity:1;color-rendering:auto;image-rendering:auto;shape-rendering:auto;text-rendering:auto;enable-background:accumulate"
       d="m 724.21074,270.61206 a 45.010836,45.01084 0 0 1 -45.01083,45.01083 45.010836,45.01084 0 0 1 -45.01086,-45.01083 45.010836,45.01084 0 0 1 45.01086,-45.01083 45.010836,45.01084 0 0 1 45.01083,45.01083 z"
       id="path14098-3-5-1-0-6-8" />
    <path
       inkscape:connector-curvature="0"
       style="color:#000000;clip-rule:nonzero;display:inline;overflow:visible;visibility:visible;opacity:1;isolation:auto;mix-blend-mode:normal;color-interpolation:sRGB;color-interpolation-filters:linearRGB;solid-color:#000000;solid-opacity:1;fill:#ffffff;fill-opacity:1;fill-rule:nonzero;stroke:#000000;stroke-width:3.35008883;stroke-linecap:butt;stroke-linejoin:miter;stroke-miterlimit:4;stroke-dasharray:none;stroke-dashoffset:0;stroke-opacity:1;color-rendering:auto;image-rendering:auto;shape-rendering:auto;text-rendering:auto;enable-background:accumulate"
       d="m 622.69843,372.1549 a 45.010836,45.01084 0 0 1 -45.01082,45.01086 45.010836,45.01084 0 0 1 -45.01086,-45.01086 45.010836,45.01084 0 0 1 45.01086,-45.01083 45.010836,45.01084 0 0 1 45.01082,45.01083 z"
       id="path14098-3-5-1-1-3-7" />
    <path
       inkscape:connector-curvature="0"
       style="color:#000000;clip-rule:nonzero;display:inline;overflow:visible;visibility:visible;opacity:1;isolation:auto;mix-blend-mode:normal;color-interpolation:sRGB;color-interpolation-filters:linearRGB;solid-color:#000000;solid-opacity:1;fill:#ffffff;fill-opacity:1;fill-rule:nonzero;stroke:#000000;stroke-width:3.35008883;stroke-linecap:butt;stroke-linejoin:miter;stroke-miterlimit:4;stroke-dasharray:none;stroke-dashoffset:0;stroke-opacity:1;color-rendering:auto;image-rendering:auto;shape-rendering:auto;text-rendering:auto;enable-background:accumulate"
       d="m 724.21074,372.1549 a 45.010836,45.01084 0 0 1 -45.01083,45.01086 45.010836,45.01084 0 0 1 -45.01086,-45.01086 45.010836,45.01084 0 0 1 45.01086,-45.01083 45.010836,45.01084 0 0 1 45.01083,45.01083 z"
       id="path14098-3-5-1-0-5-6-41" />
    <path
       inkscape:connector-curvature="0"
       style="color:#000000;clip-rule:nonzero;display:inline;overflow:visible;visibility:visible;opacity:1;isolation:auto;mix-blend-mode:normal;color-interpolation:sRGB;color-interpolation-filters:linearRGB;solid-color:#000000;solid-opacity:1;fill:#ffffff;fill-opacity:1;fill-rule:nonzero;stroke:#000000;stroke-width:3.35008883;stroke-linecap:butt;stroke-linejoin:miter;stroke-miterlimit:4;stroke-dasharray:none;stroke-dashoffset:0;stroke-opacity:1;color-rendering:auto;image-rendering:auto;shape-rendering:auto;text-rendering:auto;enable-background:accumulate"
       d="m 622.69843,473.69453 a 45.010836,45.01084 0 0 1 -45.01082,45.01082 45.010836,45.01084 0 0 1 -45.01086,-45.01082 45.010836,45.01084 0 0 1 45.01086,-45.01087 45.010836,45.01084 0 0 1 45.01082,45.01087 z"
       id="path14098-3-5-1-1-4-6-5" />
    <path
       inkscape:connector-curvature="0"
       style="color:#000000;clip-rule:nonzero;display:inline;overflow:visible;visibility:visible;opacity:1;isolation:auto;mix-blend-mode:normal;color-interpolation:sRGB;color-interpolation-filters:linearRGB;solid-color:#000000;solid-opacity:1;fill:#ffffff;fill-opacity:1;fill-rule:nonzero;stroke:#000000;stroke-width:3.35008883;stroke-linecap:butt;stroke-linejoin:miter;stroke-miterlimit:4;stroke-dasharray:none;stroke-dashoffset:0;stroke-opacity:1;color-rendering:auto;image-rendering:auto;shape-rendering:auto;text-rendering:auto;enable-background:accumulate"
       d="m 724.21074,473.69453 a 45.010836,45.01084 0 0 1 -45.01083,45.01082 45.010836,45.01084 0 0 1 -45.01086,-45.01082 45.010836,45.01084 0 0 1 45.01086,-45.01087 45.010836,45.01084 0 0 1 45.01083,45.01087 z"
       id="path14098-3-5-1-0-5-9-3-9" />
    <path
       inkscape:connector-curvature="0"
       style="color:#000000;clip-rule:nonzero;display:inline;overflow:visible;visibility:visible;opacity:1;isolation:auto;mix-blend-mode:normal;color-interpolation:sRGB;color-interpolation-filters:linearRGB;solid-color:#000000;solid-opacity:1;fill:#ffffff;fill-opacity:1;fill-rule:nonzero;stroke:#000000;stroke-width:3.35008883;stroke-linecap:butt;stroke-linejoin:miter;stroke-miterlimit:4;stroke-dasharray:none;stroke-dashoffset:0;stroke-opacity:1;color-rendering:auto;image-rendering:auto;shape-rendering:auto;text-rendering:auto;enable-background:accumulate"
       d="M 622.69843,67.529601 A 45.010836,45.01084 0 0 1 577.68761,112.54043 45.010836,45.01084 0 0 1 532.67675,67.529601 45.010836,45.01084 0 0 1 577.68761,22.518776 45.010836,45.01084 0 0 1 622.69843,67.529601 Z"
       id="path14098-3-5-1-7-3-5" />
    <path
       inkscape:connector-curvature="0"
       style="color:#000000;clip-rule:nonzero;display:inline;overflow:visible;visibility:visible;opacity:1;isolation:auto;mix-blend-mode:normal;color-interpolation:sRGB;color-interpolation-filters:linearRGB;solid-color:#000000;solid-opacity:1;fill:#ffffff;fill-opacity:1;fill-rule:nonzero;stroke:#000000;stroke-width:3.35008883;stroke-linecap:butt;stroke-linejoin:miter;stroke-miterlimit:4;stroke-dasharray:none;stroke-dashoffset:0;stroke-opacity:1;color-rendering:auto;image-rendering:auto;shape-rendering:auto;text-rendering:auto;enable-background:accumulate"
       d="M 724.21074,67.529601 A 45.010836,45.01084 0 0 1 679.19991,112.54043 45.010836,45.01084 0 0 1 634.18905,67.529601 45.010836,45.01084 0 0 1 679.19991,22.518776 45.010836,45.01084 0 0 1 724.21074,67.529601 Z"
       id="path14098-3-5-1-0-6-0-3" />
    <path
       inkscape:connector-curvature="0"
       style="color:#000000;clip-rule:nonzero;display:inline;overflow:visible;visibility:visible;opacity:1;isolation:auto;mix-blend-mode:normal;color-interpolation:sRGB;color-interpolation-filters:linearRGB;solid-color:#000000;solid-opacity:1;fill:#ffffff;fill-opacity:1;fill-rule:nonzero;stroke:#000000;stroke-width:3.35008883;stroke-linecap:butt;stroke-linejoin:miter;stroke-miterlimit:4;stroke-dasharray:none;stroke-dashoffset:0;stroke-opacity:1;color-rendering:auto;image-rendering:auto;shape-rendering:auto;text-rendering:auto;enable-background:accumulate"
       d="m 622.69843,169.07243 a 45.010836,45.01084 0 0 1 -45.01082,45.01086 45.010836,45.01084 0 0 1 -45.01086,-45.01086 45.010836,45.01084 0 0 1 45.01086,-45.01082 45.010836,45.01084 0 0 1 45.01082,45.01082 z"
       id="path14098-3-5-1-1-3-4-8" />
    <path
       inkscape:connector-curvature="0"
       style="color:#000000;clip-rule:nonzero;display:inline;overflow:visible;visibility:visible;opacity:1;isolation:auto;mix-blend-mode:normal;color-interpolation:sRGB;color-interpolation-filters:linearRGB;solid-color:#000000;solid-opacity:1;fill:#ffffff;fill-opacity:1;fill-rule:nonzero;stroke:#000000;stroke-width:3.35008883;stroke-linecap:butt;stroke-linejoin:miter;stroke-miterlimit:4;stroke-dasharray:none;stroke-dashoffset:0;stroke-opacity:1;color-rendering:auto;image-rendering:auto;shape-rendering:auto;text-rendering:auto;enable-background:accumulate"
       d="m 724.21074,169.07243 a 45.010836,45.01084 0 0 1 -45.01083,45.01086 45.010836,45.01084 0 0 1 -45.01086,-45.01086 45.010836,45.01084 0 0 1 45.01086,-45.01082 45.010836,45.01084 0 0 1 45.01083,45.01082 z"
       id="path14098-3-5-1-0-5-6-4-3" />
    <path
       inkscape:connector-curvature="0"
       style="color:#000000;clip-rule:nonzero;display:inline;overflow:visible;visibility:visible;opacity:1;isolation:auto;mix-blend-mode:normal;color-interpolation:sRGB;color-interpolation-filters:linearRGB;solid-color:#000000;solid-opacity:1;fill:#ffffff;fill-opacity:1;fill-rule:nonzero;stroke:#000000;stroke-width:3.35008883;stroke-linecap:butt;stroke-linejoin:miter;stroke-miterlimit:4;stroke-dasharray:none;stroke-dashoffset:0;stroke-opacity:1;color-rendering:auto;image-rendering:auto;shape-rendering:auto;text-rendering:auto;enable-background:accumulate"
       d="m 317.46157,575.23326 a 45.010836,45.01084 0 0 1 -45.01081,45.01083 45.010836,45.01084 0 0 1 -45.01086,-45.01083 45.010836,45.01084 0 0 1 45.01086,-45.01082 45.010836,45.01084 0 0 1 45.01081,45.01082 z"
       id="path14098-3-5-6-7-43" />
    <path
       inkscape:connector-curvature="0"
       style="color:#000000;clip-rule:nonzero;display:inline;overflow:visible;visibility:visible;opacity:1;isolation:auto;mix-blend-mode:normal;color-interpolation:sRGB;color-interpolation-filters:linearRGB;solid-color:#000000;solid-opacity:1;fill:#ffffff;fill-opacity:1;fill-rule:nonzero;stroke:#000000;stroke-width:3.35008883;stroke-linecap:butt;stroke-linejoin:miter;stroke-miterlimit:4;stroke-dasharray:none;stroke-dashoffset:0;stroke-opacity:1;color-rendering:auto;image-rendering:auto;shape-rendering:auto;text-rendering:auto;enable-background:accumulate"
       d="m 419.02852,575.23732 a 45.010836,45.01084 0 0 1 -45.01083,45.01086 45.010836,45.01084 0 0 1 -45.01086,-45.01086 45.010836,45.01084 0 0 1 45.01086,-45.01083 45.010836,45.01084 0 0 1 45.01083,45.01083 z"
       id="path14098-3-5-1-1-3-3" />
    <path
       inkscape:connector-curvature="0"
       style="color:#000000;clip-rule:nonzero;display:inline;overflow:visible;visibility:visible;opacity:1;isolation:auto;mix-blend-mode:normal;color-interpolation:sRGB;color-interpolation-filters:linearRGB;solid-color:#000000;solid-opacity:1;fill:#ffffff;fill-opacity:1;fill-rule:nonzero;stroke:#000000;stroke-width:3.35008883;stroke-linecap:butt;stroke-linejoin:miter;stroke-miterlimit:4;stroke-dasharray:none;stroke-dashoffset:0;stroke-opacity:1;color-rendering:auto;image-rendering:auto;shape-rendering:auto;text-rendering:auto;enable-background:accumulate"
       d="M 520.54083,575.23732 A 45.010836,45.01084 0 0 1 475.53,620.24818 45.010836,45.01084 0 0 1 430.51914,575.23732 45.010836,45.01084 0 0 1 475.53,530.22649 a 45.010836,45.01084 0 0 1 45.01083,45.01083 z"
       id="path14098-3-5-1-0-5-6-3" />
    <path
       inkscape:connector-curvature="0"
       style="color:#000000;clip-rule:nonzero;display:inline;overflow:visible;visibility:visible;opacity:1;isolation:auto;mix-blend-mode:normal;color-interpolation:sRGB;color-interpolation-filters:linearRGB;solid-color:#000000;solid-opacity:1;fill:#ffffff;fill-opacity:1;fill-rule:nonzero;stroke:#000000;stroke-width:3.35008883;stroke-linecap:butt;stroke-linejoin:miter;stroke-miterlimit:4;stroke-dasharray:none;stroke-dashoffset:0;stroke-opacity:1;color-rendering:auto;image-rendering:auto;shape-rendering:auto;text-rendering:auto;enable-background:accumulate"
       d="m 317.46157,676.77285 a 45.010836,45.01084 0 0 1 -45.01081,45.01086 45.010836,45.01084 0 0 1 -45.01086,-45.01086 45.010836,45.01084 0 0 1 45.01086,-45.01082 45.010836,45.01084 0 0 1 45.01081,45.01082 z"
       id="path14098-3-5-6-9-5-8" />
    <path
       inkscape:connector-curvature="0"
       style="color:#000000;clip-rule:nonzero;display:inline;overflow:visible;visibility:visible;opacity:1;isolation:auto;mix-blend-mode:normal;color-interpolation:sRGB;color-interpolation-filters:linearRGB;solid-color:#000000;solid-opacity:1;fill:#ffffff;fill-opacity:1;fill-rule:nonzero;stroke:#000000;stroke-width:3.35008883;stroke-linecap:butt;stroke-linejoin:miter;stroke-miterlimit:4;stroke-dasharray:none;stroke-dashoffset:0;stroke-opacity:1;color-rendering:auto;image-rendering:auto;shape-rendering:auto;text-rendering:auto;enable-background:accumulate"
       d="m 419.02852,676.77695 a 45.010836,45.01084 0 0 1 -45.01083,45.01082 45.010836,45.01084 0 0 1 -45.01086,-45.01082 45.010836,45.01084 0 0 1 45.01086,-45.01087 45.010836,45.01084 0 0 1 45.01083,45.01087 z"
       id="path14098-3-5-1-1-4-6-6" />
    <path
       inkscape:connector-curvature="0"
       style="color:#000000;clip-rule:nonzero;display:inline;overflow:visible;visibility:visible;opacity:1;isolation:auto;mix-blend-mode:normal;color-interpolation:sRGB;color-interpolation-filters:linearRGB;solid-color:#000000;solid-opacity:1;fill:#ffffff;fill-opacity:1;fill-rule:nonzero;stroke:#000000;stroke-width:3.35008883;stroke-linecap:butt;stroke-linejoin:miter;stroke-miterlimit:4;stroke-dasharray:none;stroke-dashoffset:0;stroke-opacity:1;color-rendering:auto;image-rendering:auto;shape-rendering:auto;text-rendering:auto;enable-background:accumulate"
       d="M 520.54083,676.77695 A 45.010836,45.01084 0 0 1 475.53,721.78777 45.010836,45.01084 0 0 1 430.51914,676.77695 45.010836,45.01084 0 0 1 475.53,631.76608 a 45.010836,45.01084 0 0 1 45.01083,45.01087 z"
       id="path14098-3-5-1-0-5-9-3-0" />
    <path
       inkscape:connector-curvature="0"
       style="color:#000000;clip-rule:nonzero;display:inline;overflow:visible;visibility:visible;opacity:1;isolation:auto;mix-blend-mode:normal;color-interpolation:sRGB;color-interpolation-filters:linearRGB;solid-color:#000000;solid-opacity:1;fill:#ffffff;fill-opacity:1;fill-rule:nonzero;stroke:#000000;stroke-width:3.35008883;stroke-linecap:butt;stroke-linejoin:miter;stroke-miterlimit:4;stroke-dasharray:none;stroke-dashoffset:0;stroke-opacity:1;color-rendering:auto;image-rendering:auto;shape-rendering:auto;text-rendering:auto;enable-background:accumulate"
       d="M 114.38237,575.23326 A 45.010836,45.01084 0 0 1 69.371541,620.24409 45.010836,45.01084 0 0 1 24.360678,575.23326 45.010836,45.01084 0 0 1 69.371541,530.22244 45.010836,45.01084 0 0 1 114.38237,575.23326 Z"
       id="path14098-3-5-6-7-2-8" />
    <path
       inkscape:connector-curvature="0"
       style="color:#000000;clip-rule:nonzero;display:inline;overflow:visible;visibility:visible;opacity:1;isolation:auto;mix-blend-mode:normal;color-interpolation:sRGB;color-interpolation-filters:linearRGB;solid-color:#000000;solid-opacity:1;fill:#ffffff;fill-opacity:1;fill-rule:nonzero;stroke:#000000;stroke-width:3.35008883;stroke-linecap:butt;stroke-linejoin:miter;stroke-miterlimit:4;stroke-dasharray:none;stroke-dashoffset:0;stroke-opacity:1;color-rendering:auto;image-rendering:auto;shape-rendering:auto;text-rendering:auto;enable-background:accumulate"
       d="m 215.94932,575.23732 a 45.010836,45.01084 0 0 1 -45.01083,45.01086 45.010836,45.01084 0 0 1 -45.01086,-45.01086 45.010836,45.01084 0 0 1 45.01086,-45.01083 45.010836,45.01084 0 0 1 45.01083,45.01083 z"
       id="path14098-3-5-1-1-3-9-8" />
    <path
       inkscape:connector-curvature="0"
       style="color:#000000;clip-rule:nonzero;display:inline;overflow:visible;visibility:visible;opacity:1;isolation:auto;mix-blend-mode:normal;color-interpolation:sRGB;color-interpolation-filters:linearRGB;solid-color:#000000;solid-opacity:1;fill:#ffffff;fill-opacity:1;fill-rule:nonzero;stroke:#000000;stroke-width:3.35008883;stroke-linecap:butt;stroke-linejoin:miter;stroke-miterlimit:4;stroke-dasharray:none;stroke-dashoffset:0;stroke-opacity:1;color-rendering:auto;image-rendering:auto;shape-rendering:auto;text-rendering:auto;enable-background:accumulate"
       d="M 114.38237,676.77285 A 45.010836,45.01084 0 0 1 69.371541,721.78371 45.010836,45.01084 0 0 1 24.360678,676.77285 45.010836,45.01084 0 0 1 69.371541,631.76203 45.010836,45.01084 0 0 1 114.38237,676.77285 Z"
       id="path14098-3-5-6-9-5-9-9" />
    <path
       inkscape:connector-curvature="0"
       style="color:#000000;clip-rule:nonzero;display:inline;overflow:visible;visibility:visible;opacity:1;isolation:auto;mix-blend-mode:normal;color-interpolation:sRGB;color-interpolation-filters:linearRGB;solid-color:#000000;solid-opacity:1;fill:#ffffff;fill-opacity:1;fill-rule:nonzero;stroke:#000000;stroke-width:3.35008883;stroke-linecap:butt;stroke-linejoin:miter;stroke-miterlimit:4;stroke-dasharray:none;stroke-dashoffset:0;stroke-opacity:1;color-rendering:auto;image-rendering:auto;shape-rendering:auto;text-rendering:auto;enable-background:accumulate"
       d="m 215.94932,676.77695 a 45.010836,45.01084 0 0 1 -45.01083,45.01082 45.010836,45.01084 0 0 1 -45.01086,-45.01082 45.010836,45.01084 0 0 1 45.01086,-45.01087 45.010836,45.01084 0 0 1 45.01083,45.01087 z"
       id="path14098-3-5-1-1-4-6-0-7" />
    <path
       inkscape:connector-curvature="0"
       style="color:#000000;clip-rule:nonzero;display:inline;overflow:visible;visibility:visible;opacity:1;isolation:auto;mix-blend-mode:normal;color-interpolation:sRGB;color-interpolation-filters:linearRGB;solid-color:#000000;solid-opacity:1;fill:#ffffff;fill-opacity:1;fill-rule:nonzero;stroke:#000000;stroke-width:3.35008883;stroke-linecap:butt;stroke-linejoin:miter;stroke-miterlimit:4;stroke-dasharray:none;stroke-dashoffset:0;stroke-opacity:1;color-rendering:auto;image-rendering:auto;shape-rendering:auto;text-rendering:auto;enable-background:accumulate"
       d="m 622.69843,575.23732 a 45.010836,45.01084 0 0 1 -45.01082,45.01086 45.010836,45.01084 0 0 1 -45.01086,-45.01086 45.010836,45.01084 0 0 1 45.01086,-45.01083 45.010836,45.01084 0 0 1 45.01082,45.01083 z"
       id="path14098-3-5-1-1-3-7-3" />
    <path
       inkscape:connector-curvature="0"
       style="color:#000000;clip-rule:nonzero;display:inline;overflow:visible;visibility:visible;opacity:1;isolation:auto;mix-blend-mode:normal;color-interpolation:sRGB;color-interpolation-filters:linearRGB;solid-color:#000000;solid-opacity:1;fill:#ffffff;fill-opacity:1;fill-rule:nonzero;stroke:#000000;stroke-width:3.35008883;stroke-linecap:butt;stroke-linejoin:miter;stroke-miterlimit:4;stroke-dasharray:none;stroke-dashoffset:0;stroke-opacity:1;color-rendering:auto;image-rendering:auto;shape-rendering:auto;text-rendering:auto;enable-background:accumulate"
       d="m 724.21074,575.23732 a 45.010836,45.01084 0 0 1 -45.01083,45.01086 45.010836,45.01084 0 0 1 -45.01086,-45.01086 45.010836,45.01084 0 0 1 45.01086,-45.01083 45.010836,45.01084 0 0 1 45.01083,45.01083 z"
       id="path14098-3-5-1-0-5-6-41-0" />
    <path
       inkscape:connector-curvature="0"
       style="color:#000000;clip-rule:nonzero;display:inline;overflow:visible;visibility:visible;opacity:1;isolation:auto;mix-blend-mode:normal;color-interpolation:sRGB;color-interpolation-filters:linearRGB;solid-color:#000000;solid-opacity:1;fill:#ffffff;fill-opacity:1;fill-rule:nonzero;stroke:#000000;stroke-width:3.35008883;stroke-linecap:butt;stroke-linejoin:miter;stroke-miterlimit:4;stroke-dasharray:none;stroke-dashoffset:0;stroke-opacity:1;color-rendering:auto;image-rendering:auto;shape-rendering:auto;text-rendering:auto;enable-background:accumulate"
       d="m 622.69843,676.77695 a 45.010836,45.01084 0 0 1 -45.01082,45.01082 45.010836,45.01084 0 0 1 -45.01086,-45.01082 45.010836,45.01084 0 0 1 45.01086,-45.01087 45.010836,45.01084 0 0 1 45.01082,45.01087 z"
       id="path14098-3-5-1-1-4-6-5-3" />
    <path
       inkscape:connector-curvature="0"
       style="color:#000000;clip-rule:nonzero;display:inline;overflow:visible;visibility:visible;opacity:1;isolation:auto;mix-blend-mode:normal;color-interpolation:sRGB;color-interpolation-filters:linearRGB;solid-color:#000000;solid-opacity:1;fill:#ffffff;fill-opacity:1;fill-rule:nonzero;stroke:#000000;stroke-width:3.35008883;stroke-linecap:butt;stroke-linejoin:miter;stroke-miterlimit:4;stroke-dasharray:none;stroke-dashoffset:0;stroke-opacity:1;color-rendering:auto;image-rendering:auto;shape-rendering:auto;text-rendering:auto;enable-background:accumulate"
       d="m 724.21074,676.77695 a 45.010836,45.01084 0 0 1 -45.01083,45.01082 45.010836,45.01084 0 0 1 -45.01086,-45.01082 45.010836,45.01084 0 0 1 45.01086,-45.01087 45.010836,45.01084 0 0 1 45.01083,45.01087 z"
       id="path14098-3-5-1-0-5-9-3-9-0" />
  </g>
</svg>
